<?xml version="1.0" encoding="UTF-8" standalone="no"?>
<!DOCTYPE svg PUBLIC "-//W3C//DTD SVG 1.1//EN" "http://www.w3.org/Graphics/SVG/1.1/DTD/svg11.dtd">
<svg version="1.1" xmlns="http://www.w3.org/2000/svg" xmlns:xlink="http://www.w3.org/1999/xlink" preserveAspectRatio="xMidYMid meet" viewBox="0 0 508 170" width="508" height="170"><defs><path d="M90.63 97.48C90.63 52.32 90.63 27.23 90.63 22.21C90.63 20.72 91.56 19.97 91.67 19.72C92.7 18.72 93.94 18.82 94.19 18.72C95.68 18.72 96.44 19.62 96.69 19.72C97.35 20.39 97.69 21.22 97.69 22.21L97.69 22.21C97.69 67.37 97.69 92.46 97.69 97.48C97.69 98.97 96.79 99.73 96.69 99.98C95.68 100.98 94.44 100.88 94.19 100.98C92.7 100.98 91.92 100.08 91.67 99.98C90.98 99.31 90.63 98.47 90.63 97.48L90.63 97.48ZM100.73 41.73C100.73 40.2 101.4 39.15 102.75 38.58C102.75 38.58 102.75 38.58 102.75 38.58C103.21 38.35 103.73 38.23 104.3 38.23C104.3 38.23 104.3 38.23 104.3 38.23C105.83 38.23 106.88 38.9 107.45 40.24L107.45 40.24C124.37 73.72 133.77 92.33 135.64 96.05C135.91 96.58 136.05 97.1 136.05 97.59C136.05 97.59 136.05 97.59 136.05 97.59C136.05 99.12 135.38 100.18 134.04 100.75C134.04 100.75 134.04 100.75 134.04 100.75C133.58 100.98 133.06 101.09 132.49 101.09C132.49 101.09 132.49 101.09 132.49 101.09C130.95 101.09 129.89 100.44 129.32 99.14L129.32 99.14C112.37 65.62 102.96 47 101.07 43.28C100.84 42.82 100.73 42.3 100.73 41.73C100.73 41.73 100.73 41.73 100.73 41.73ZM137.31 82.67C137.31 82.32 137.46 81.77 137.77 81L137.77 81C156.61 44.77 167.08 24.63 169.17 20.61C169.97 19.27 171.02 18.6 172.32 18.6C172.32 18.6 172.32 18.6 172.32 18.6C173.93 18.6 174.7 19.56 174.96 19.66C175.65 20.37 176 21.22 176 22.21C176 22.21 176 22.21 176 22.21C176 22.56 175.84 23.11 175.54 23.88L175.54 23.88C156.69 60.15 146.23 80.3 144.13 84.33C143.37 85.63 142.32 86.28 140.98 86.28C140.98 86.28 140.98 86.28 140.98 86.28C139.37 86.28 138.6 85.33 138.34 85.22C137.65 84.51 137.31 83.66 137.31 82.67C137.31 82.67 137.31 82.67 137.31 82.67ZM168.83 97.48C168.83 66.03 168.83 48.55 168.83 45.06C168.83 43.57 169.73 42.79 169.83 42.53C170.83 41.5 172.07 41.6 172.32 41.5C173.82 41.5 174.6 42.43 174.85 42.53C175.54 43.22 175.88 44.06 175.88 45.06L175.88 45.06C175.88 76.51 175.88 93.99 175.88 97.48C175.88 98.97 174.95 99.73 174.85 99.98C173.82 100.98 172.58 100.88 172.32 100.98C170.83 100.98 170.08 100.08 169.83 99.98C169.16 99.31 168.83 98.47 168.83 97.48L168.83 97.48ZM190.06 59.87C190.06 51.61 192.76 45.58 193.06 44C196.04 36.4 200.29 32.16 201.09 30.85C206.15 25.31 212.02 22.9 213.23 22.01C217.97 19.81 222.93 18.72 228.13 18.72C228.13 18.72 228.13 18.72 228.13 18.72C238.59 18.72 245.44 23.72 247.36 24.28C256.15 29.84 259.81 37.82 261.2 39.32C266.26 48.8 265.75 57.81 266.26 59.87C266.26 70.95 261.7 78.35 261.2 80.4C256.15 89.84 248.74 93.91 247.36 95.42C238.59 100.98 230.06 100.42 228.13 100.98C217.68 100.98 210.83 95.97 208.9 95.42C200.11 89.84 196.48 81.9 195.09 80.4C191.74 74.1 190.06 67.26 190.06 59.87C190.06 59.87 190.06 59.87 190.06 59.87ZM197.02 59.87C197.02 66.88 199.24 71.88 199.48 73.22C201.95 79.57 205.48 83.01 206.15 84.1C210.34 88.63 215.05 90.59 216.04 91.31C219.86 93.09 223.85 93.98 228.02 93.98C228.02 93.98 228.02 93.98 228.02 93.98C236.41 93.98 241.97 89.92 243.52 89.46C250.64 84.96 253.73 78.34 254.86 77.1C259.08 69.23 258.65 61.59 259.08 59.87C259.08 50.52 255.28 44.37 254.86 42.65C250.64 34.79 244.65 31.51 243.52 30.27C238.78 27.27 233.61 25.77 228.02 25.77C228.02 25.77 228.02 25.77 228.02 25.77C221.77 25.77 217.24 28.17 216.04 28.44C210.34 31.1 207.14 34.93 206.15 35.65C203.35 38.67 201.13 42.3 199.48 46.53C198 54.53 197.18 58.98 197.02 59.87ZM276.81 22.21C276.81 20.84 277.74 20.02 277.85 19.78C278.53 19.07 279.4 18.72 280.44 18.72C280.44 18.72 280.44 18.72 280.44 18.72C281.53 18.72 282.25 19.28 282.45 19.35C283.06 19.77 283.5 20.34 283.77 21.07L283.77 21.07C300.48 66.23 309.76 91.32 311.61 96.33C311.77 96.94 311.84 97.37 311.84 97.59C311.84 97.59 311.84 97.59 311.84 97.59C311.84 98.97 310.91 99.79 310.81 100.03C310.12 100.74 309.26 101.09 308.22 101.09C308.22 101.09 308.22 101.09 308.22 101.09C306.61 101.09 305.5 100.33 304.89 98.8L304.89 98.8C288.18 53.64 278.9 28.55 277.04 23.53C276.89 22.92 276.81 22.48 276.81 22.21C276.81 22.21 276.81 22.21 276.81 22.21ZM313.05 75.25C313.05 74.83 313.12 74.39 313.28 73.94L313.28 73.94C325.12 42.21 331.71 24.59 333.02 21.07C333.63 19.5 334.72 18.72 336.29 18.72C336.29 18.72 336.29 18.72 336.29 18.72C337.91 18.72 338.68 19.67 338.94 19.78C339.63 20.48 339.98 21.3 339.98 22.21C339.98 22.21 339.98 22.21 339.98 22.21C339.98 22.63 339.9 23.07 339.75 23.53L339.75 23.53C327.86 55.26 321.25 72.89 319.93 76.42C319.32 77.98 318.23 78.77 316.66 78.77C316.66 78.77 316.66 78.77 316.66 78.77C315.06 78.77 314.31 77.81 314.05 77.71C313.38 77 313.05 76.18 313.05 75.25C313.05 75.25 313.05 75.25 313.05 75.25ZM357.43 72.79C357.43 65.66 357.43 61.71 357.43 60.92C357.43 59.41 358.33 58.66 358.43 58.41C359.44 57.4 360.68 57.5 360.93 57.4C362.42 57.4 363.2 58.31 363.45 58.41C364.14 59.08 364.48 59.91 364.48 60.92L364.48 60.92C364.48 68.11 364.48 72.1 364.48 72.9C364.48 74.82 364.64 76.4 364.94 77.62C364.94 77.62 364.94 77.62 364.94 77.62C365.69 81.35 367.85 83.92 368.17 84.62C369.81 86.8 371.8 88.58 374.13 89.95C374.13 89.95 374.13 89.95 374.13 89.95C376.43 91.26 378.53 92.17 380.44 92.66C380.44 92.66 380.44 92.66 380.44 92.66C384.01 93.58 386.7 93.49 387.4 93.58C389.65 93.58 391.97 93.27 394.34 92.66C394.34 92.66 394.34 92.66 394.34 92.66C396.33 92.17 398.46 91.26 400.72 89.95C400.72 89.95 400.72 89.95 400.72 89.95C404.22 87.89 406.06 85.15 406.65 84.62C408.28 82.44 409.34 80.11 409.84 77.62C409.84 77.62 409.84 77.62 409.84 77.62C410.18 76.24 410.35 74.67 410.35 72.9L410.35 72.9C410.35 65.71 410.35 61.71 410.35 60.92C410.35 59.41 411.27 58.66 411.37 58.41C412.38 57.4 413.62 57.5 413.87 57.4C415.36 57.4 416.11 58.31 416.36 58.41C417.03 59.08 417.37 59.91 417.37 60.92L417.37 60.92C417.37 68.04 417.37 72 417.37 72.79C417.37 75.28 417.21 77.35 416.91 79C416.91 79 416.91 79 416.91 79C415.7 84.45 412.78 87.88 412.32 88.86C410.05 91.82 407.39 94.21 404.33 96.05C404.33 96.05 404.33 96.05 404.33 96.05C401.77 97.58 399.03 98.76 396.11 99.6C396.11 99.6 396.11 99.6 396.11 99.6C393.44 100.37 390.53 100.75 387.4 100.75C387.4 100.75 387.4 100.75 387.4 100.75C384.3 100.75 381.41 100.37 378.72 99.6C378.72 99.6 378.72 99.6 378.72 99.6C375.74 98.76 372.99 97.58 370.46 96.05C370.46 96.05 370.46 96.05 370.46 96.05C365.86 93.29 363.27 89.58 362.48 88.86C360.22 85.92 358.69 82.63 357.89 79C357.89 79 357.89 79 357.89 79C357.58 77.35 357.43 75.28 357.43 72.79L357.43 72.79ZM357.43 49.26C357.43 33.03 357.43 24.02 357.43 22.21C357.43 20.72 358.33 19.97 358.43 19.72C359.44 18.72 360.68 18.82 360.93 18.72C362.42 18.72 363.2 19.62 363.45 19.72C364.14 20.39 364.48 21.22 364.48 22.21L364.48 22.21C364.48 38.44 364.48 47.45 364.48 49.26C364.48 50.75 363.55 51.53 363.45 51.78C362.42 52.81 361.18 52.71 360.93 52.81C359.44 52.81 358.68 51.88 358.43 51.78C357.76 51.09 357.43 50.25 357.43 49.26L357.43 49.26ZM409.95 49.37C409.95 33.15 409.95 24.13 409.95 22.33C409.95 20.84 410.88 20.08 410.98 19.83C412.03 18.83 413.27 18.93 413.52 18.83C415.01 18.83 415.77 19.73 416.02 19.83C416.69 20.5 417.02 21.33 417.02 22.33L417.02 22.33C417.02 38.56 417.02 47.57 417.02 49.37C417.02 50.86 416.12 51.64 416.02 51.9C415.01 52.93 413.77 52.83 413.52 52.93C412.03 52.93 411.24 52 410.98 51.9C410.3 51.21 409.95 50.37 409.95 49.37L409.95 49.37Z" id="a56d2Y9znb"></path><path d="M6.26 129.69C6.26 129.17 6.62 128.86 6.66 128.77C6.92 128.49 7.24 128.36 7.62 128.36C7.62 128.36 7.62 128.36 7.62 128.36C8.04 128.36 8.31 128.58 8.38 128.6C8.61 128.76 8.78 128.97 8.88 129.24L8.88 129.24C15.16 146.22 18.65 155.65 19.35 157.53C19.41 157.76 19.44 157.93 19.44 158.03C19.44 158.03 19.44 158.03 19.44 158.03C19.44 158.55 19.09 158.86 19.05 158.95C18.79 159.21 18.46 159.35 18.08 159.35C18.08 159.35 18.08 159.35 18.08 159.35C17.67 159.35 17.39 159.14 17.32 159.11C17.09 158.95 16.92 158.73 16.82 158.46L16.82 158.46C10.54 141.49 7.05 132.06 6.35 130.17C6.29 129.94 6.26 129.78 6.26 129.69C6.26 129.69 6.26 129.69 6.26 129.69ZM19.39 150.87C19.39 150.72 19.42 150.56 19.48 150.39L19.48 150.39C24.21 137.7 26.84 130.65 27.37 129.24C27.59 128.65 28 128.36 28.59 128.36C28.59 128.36 28.59 128.36 28.59 128.36C29.2 128.36 29.49 128.73 29.59 128.77C29.85 129.03 29.97 129.34 29.97 129.69C29.97 129.69 29.97 129.69 29.97 129.69C29.97 129.8 29.94 129.96 29.86 130.17L29.86 130.17C25.15 142.86 22.53 149.91 22 151.32C21.78 151.91 21.37 152.2 20.78 152.2C20.78 152.2 20.78 152.2 20.78 152.2C20.17 152.2 19.88 151.84 19.78 151.8C19.52 151.52 19.39 151.21 19.39 150.87C19.39 150.87 19.39 150.87 19.39 150.87ZM25.27 146.8C25.27 146.27 25.58 145.95 25.62 145.86C25.86 145.59 26.18 145.46 26.56 145.46C26.56 145.46 26.56 145.46 26.56 145.46C27.15 145.46 27.56 145.74 27.8 146.3L27.8 146.3C30.42 153.04 31.88 156.78 32.17 157.53C32.23 157.71 32.26 157.86 32.26 157.99C32.26 157.99 32.26 157.99 32.26 157.99C32.26 158.53 31.95 158.82 31.92 158.91C31.68 159.17 31.38 159.3 30.99 159.3C30.99 159.3 30.99 159.3 30.99 159.3C30.39 159.3 29.97 159.02 29.73 158.46L29.73 158.46C27.12 151.72 25.67 147.98 25.38 147.23C25.3 147.02 25.27 146.87 25.27 146.8C25.27 146.8 25.27 146.8 25.27 146.8ZM32.65 149.81C32.65 149.7 32.69 149.54 32.76 149.33L32.76 149.33C37.24 137.28 39.74 130.58 40.23 129.24C40.46 128.65 40.87 128.36 41.46 128.36C41.46 128.36 41.46 128.36 41.46 128.36C42.07 128.36 42.36 128.73 42.46 128.77C42.71 129.03 42.84 129.34 42.84 129.69C42.84 129.69 42.84 129.69 42.84 129.69C42.84 129.8 42.81 129.96 42.73 130.17L42.73 130.17C38.25 142.22 35.76 148.92 35.26 150.26C35.03 150.85 34.62 151.14 34.03 151.14C34.03 151.14 34.03 151.14 34.03 151.14C33.42 151.14 33.14 150.77 33.04 150.73C32.78 150.46 32.65 150.15 32.65 149.81C32.65 149.81 32.65 149.81 32.65 149.81ZM48.57 158.03C48.57 141.04 48.57 131.61 48.57 129.72C48.57 129.17 48.91 128.87 48.95 128.78C49.32 128.4 49.79 128.44 49.88 128.4C50.44 128.4 50.74 128.74 50.84 128.78C51.09 129.04 51.22 129.35 51.22 129.72L51.22 129.72C51.22 146.71 51.22 156.14 51.22 158.03C51.22 158.59 50.87 158.88 50.84 158.97C50.44 159.35 49.98 159.31 49.88 159.35C49.32 159.35 49.04 159.01 48.95 158.97C48.69 158.72 48.57 158.41 48.57 158.03L48.57 158.03ZM52.36 142.81C52.36 142.24 52.71 141.96 52.75 141.87C53.01 141.62 53.33 141.49 53.7 141.49L53.7 141.49C60.75 141.49 64.67 141.49 65.45 141.49C66.01 141.49 66.31 141.83 66.4 141.87C66.79 142.24 66.75 142.71 66.79 142.81C66.79 143.37 66.44 143.66 66.4 143.76C66.14 144.02 65.83 144.15 65.45 144.15L65.45 144.15C58.4 144.15 54.48 144.15 53.7 144.15C53.33 144.15 53.01 144.02 52.75 143.76C52.52 143.19 52.39 142.87 52.36 142.81ZM67.85 158.03C67.85 141.04 67.85 131.61 67.85 129.72C67.85 129.17 68.19 128.87 68.23 128.78C68.6 128.4 69.07 128.44 69.16 128.4C69.73 128.4 70.02 128.74 70.12 128.78C70.37 129.04 70.5 129.35 70.5 129.72L70.5 129.72C70.5 146.71 70.5 156.14 70.5 158.03C70.5 158.59 70.15 158.88 70.12 158.97C69.73 159.35 69.26 159.31 69.16 159.35C68.6 159.35 68.32 159.01 68.23 158.97C67.97 158.72 67.85 158.41 67.85 158.03L67.85 158.03ZM74.99 158.07C74.99 157.86 75.04 157.67 75.12 157.49L75.12 157.49C81.02 143.76 84.3 136.13 84.95 134.6C85.18 134.07 85.59 133.81 86.18 133.81C86.18 133.81 86.18 133.81 86.18 133.81C86.76 133.81 87.03 134.17 87.13 134.21C87.37 134.47 87.49 134.78 87.49 135.12C87.49 135.12 87.49 135.12 87.49 135.12C87.49 135.34 87.45 135.53 87.36 135.7L87.36 135.7C81.48 149.45 78.22 157.09 77.57 158.62C77.33 159.13 76.91 159.39 76.31 159.39C76.31 159.39 76.31 159.39 76.31 159.39C75.73 159.39 75.45 159.03 75.36 158.99C75.11 158.73 74.99 158.42 74.99 158.07C74.99 158.07 74.99 158.07 74.99 158.07ZM83.57 148.04C83.57 147.47 83.92 147.19 83.96 147.1C84.21 146.85 84.53 146.72 84.91 146.72L84.91 146.72C89.14 146.72 91.49 146.72 91.96 146.72C92.52 146.72 92.82 147.06 92.91 147.1C93.3 147.47 93.26 147.94 93.3 148.04C93.3 148.59 92.95 148.89 92.91 148.99C92.65 149.25 92.34 149.37 91.96 149.37L91.96 149.37C87.73 149.37 85.38 149.37 84.91 149.37C84.53 149.37 84.21 149.25 83.96 148.99C83.72 148.42 83.6 148.1 83.57 148.04ZM87.15 129.76C87.15 129.17 87.42 128.76 87.95 128.54C87.95 128.54 87.95 128.54 87.95 128.54C88.12 128.45 88.29 128.4 88.47 128.4C88.47 128.4 88.47 128.4 88.47 128.4C89.07 128.4 89.49 128.67 89.72 129.21L89.72 129.21C96.99 146.18 101.02 155.6 101.83 157.49C101.92 157.67 101.97 157.85 101.97 158.03C101.97 158.03 101.97 158.03 101.97 158.03C101.97 158.62 101.7 159.03 101.16 159.26C101.16 159.26 101.16 159.26 101.16 159.26C100.99 159.35 100.82 159.39 100.64 159.39C100.64 159.39 100.64 159.39 100.64 159.39C100.03 159.39 99.62 159.13 99.39 158.62L99.39 158.62C92.12 141.63 88.08 132.19 87.27 130.3C87.19 130.13 87.15 129.95 87.15 129.76C87.15 129.76 87.15 129.76 87.15 129.76ZM104.08 129.72C104.08 129.17 104.42 128.87 104.45 128.78C104.7 128.53 105.02 128.4 105.39 128.4L105.39 128.4C117.84 128.4 124.76 128.4 126.14 128.4C126.71 128.4 126.99 128.74 127.08 128.78C127.46 129.17 127.42 129.62 127.46 129.72C127.46 130.28 127.12 130.57 127.08 130.67C126.83 130.93 126.52 131.07 126.14 131.07L126.14 131.07C113.69 131.07 106.78 131.07 105.39 131.07C105.02 131.07 104.7 130.93 104.45 130.67C104.23 130.1 104.1 129.78 104.08 129.72ZM114.42 158.03C114.42 143.44 114.42 135.34 114.42 133.72C114.42 133.16 114.77 132.86 114.81 132.77C115.2 132.38 115.67 132.42 115.76 132.38C116.31 132.38 116.61 132.73 116.7 132.77C116.95 133.03 117.08 133.34 117.08 133.72L117.08 133.72C117.08 148.31 117.08 156.41 117.08 158.03C117.08 158.59 116.74 158.88 116.7 158.97C116.31 159.35 115.86 159.31 115.76 159.35C115.2 159.35 114.91 159.01 114.81 158.97C114.55 158.72 114.42 158.41 114.42 158.03L114.42 158.03ZM129.11 136.05C129.11 135.54 129.35 135.15 129.84 134.86C129.84 134.86 129.84 134.86 129.84 134.86C130.23 134.66 130.66 134.32 131.13 133.84C131.13 133.84 131.13 133.84 131.13 133.84C130.22 133.54 129.81 132.88 129.66 132.77C129.29 132.25 129.11 131.67 129.11 131.02C129.11 131.02 129.11 131.02 129.11 131.02C129.11 129.78 129.88 129.12 129.97 128.91C130.54 128.33 131.24 128.04 132.06 128.04L132.06 128.04C132.08 128.04 132.1 128.04 132.1 128.04C133.51 128.04 134.07 128.95 134.29 129.05C134.82 129.73 135.11 130.49 135.15 131.32L135.15 131.32C135.15 131.43 135.15 131.49 135.15 131.5C135.15 132.29 134.95 133.06 134.54 133.81C134.54 133.81 134.54 133.81 134.54 133.81C134.32 134.19 133.88 134.75 133.25 135.49C133.25 135.49 133.25 135.49 133.25 135.49C132.6 136.21 131.88 136.79 131.08 137.24C131.08 137.24 131.08 137.24 131.08 137.24C130.75 137.37 130.55 137.43 130.47 137.43C130.47 137.43 130.47 137.43 130.47 137.43C129.97 137.43 129.57 137.18 129.27 136.67C129.27 136.67 129.27 136.67 129.27 136.67C129.16 136.38 129.11 136.18 129.11 136.05C129.11 136.05 129.11 136.05 129.11 136.05ZM137.74 150.3C137.74 150.13 137.74 150.03 137.74 150.02C137.78 149.48 138.12 149.2 138.16 149.11C138.41 148.87 138.72 148.74 139.08 148.74C139.08 148.74 139.08 148.74 139.08 148.74C139.69 148.74 139.98 149.1 140.08 149.14C140.35 149.41 140.48 149.74 140.48 150.15L140.48 150.15C140.48 150.27 140.48 150.33 140.48 150.35C140.48 151.9 141.04 153.24 142.16 154.36C142.16 154.36 142.16 154.36 142.16 154.36C142.97 155.16 143.95 155.77 145.08 156.17C145.08 156.17 145.08 156.17 145.08 156.17C146.17 156.56 147.35 156.76 148.62 156.76L148.62 156.76C148.64 156.76 148.66 156.76 148.66 156.76C149.73 156.76 150.75 156.61 151.74 156.31C151.74 156.31 151.74 156.31 151.74 156.31C152.74 155.99 153.59 155.51 154.28 154.86C154.28 154.86 154.28 154.86 154.28 154.86C155.03 154.12 155.35 153.29 155.47 153.11C155.77 152.43 155.91 151.75 155.91 151.08L155.91 151.08C155.91 151.02 155.91 150.99 155.91 150.99C155.91 150.42 156.27 150.12 156.31 150.03C156.7 149.63 157.17 149.67 157.26 149.63C157.82 149.63 158.12 149.97 158.21 150C158.49 150.26 158.62 150.58 158.62 150.94L158.62 150.94C158.62 151.02 158.62 151.07 158.62 151.08C158.53 152.72 157.88 153.91 157.79 154.23C157.31 155.24 156.71 156.07 156 156.71C156 156.71 156 156.71 156 156.71C155.04 157.65 153.86 158.33 152.46 158.74C152.46 158.74 152.46 158.74 152.46 158.74C151.24 159.11 149.94 159.3 148.57 159.3L148.57 159.3C148.55 159.3 148.53 159.3 148.53 159.3C146.91 159.3 145.43 159.07 144.11 158.62C144.11 158.62 144.11 158.62 144.11 158.62C142.54 158.08 141.23 157.26 140.18 156.17C140.18 156.17 140.18 156.17 140.18 156.17C138.55 154.54 137.74 152.59 137.74 150.3L137.74 150.3ZM140.26 135.29C140.26 134.38 140.65 133.36 140.69 133.15C140.97 132.32 141.46 131.55 142.16 130.82C142.16 130.82 142.16 130.82 142.16 130.82C142.97 129.98 143.97 129.34 145.17 128.92C145.17 128.92 145.17 128.92 145.17 128.92C146.13 128.61 147.21 128.45 148.41 128.45L148.41 128.45C148.46 128.45 148.49 128.45 148.5 128.45C150.75 128.45 152.72 129.07 154.41 130.3C154.41 130.3 154.41 130.3 154.41 130.3C155.79 131.32 156.45 132.63 156.68 132.89C157.27 133.93 157.59 135.04 157.65 136.22C157.65 136.22 157.65 136.22 157.65 136.22C157.67 136.83 157.31 137.13 157.27 137.24C157 137.51 156.67 137.64 156.27 137.64C156.27 137.64 156.27 137.64 156.27 137.64C155.75 137.64 155.46 137.31 155.37 137.27C155.11 137.02 154.97 136.71 154.95 136.35C154.95 136.35 154.95 136.35 154.95 136.35C154.82 134.02 153.14 132.94 152.94 132.56C151.69 131.59 150.25 131.1 148.62 131.1L148.62 131.1C148.56 131.1 148.54 131.1 148.53 131.1C147.7 131.1 146.9 131.23 146.14 131.5C146.14 131.5 146.14 131.5 146.14 131.5C145.33 131.77 144.67 132.17 144.15 132.68C144.15 132.68 144.15 132.68 144.15 132.68C143.44 133.39 143.05 134.27 142.97 135.33C142.97 135.33 142.97 135.33 142.97 135.33C142.92 135.88 142.59 136.16 142.55 136.25C142.31 136.5 142 136.63 141.64 136.63C141.64 136.63 141.64 136.63 141.64 136.63C141.09 136.63 140.78 136.28 140.68 136.24C140.4 135.98 140.26 135.67 140.26 135.29C140.26 135.29 140.26 135.29 140.26 135.29ZM141.32 138.96C141.32 138.5 141.53 138.14 141.95 137.87C141.95 137.87 141.95 137.87 141.95 137.87C142.19 137.72 142.43 137.64 142.66 137.64C142.66 137.64 142.66 137.64 142.66 137.64C143.12 137.64 143.49 137.85 143.76 138.27C143.76 138.27 143.76 138.27 143.76 138.27C144.78 139.68 145.72 140.28 145.94 140.51C146.72 141.06 147.72 141.55 148.93 141.99C148.93 141.99 148.93 141.99 148.93 141.99C149.23 142.1 150.6 142.55 150.78 142.61C152.33 143.13 153.09 143.48 153.35 143.58C154.03 143.88 154.66 144.25 155.25 144.69C155.25 144.69 155.25 144.69 155.25 144.69C155.78 145.06 156.21 145.42 156.54 145.75C156.54 145.75 156.54 145.75 156.54 145.75C156.77 146.02 156.89 146.32 156.89 146.63C156.89 146.63 156.89 146.63 156.89 146.63C156.89 146.99 156.74 147.32 156.46 147.61C156.46 147.61 156.46 147.61 156.46 147.61C156.18 147.83 155.89 147.95 155.57 147.95C155.57 147.95 155.57 147.95 155.57 147.95C155.03 147.95 154.7 147.56 154.6 147.52C154.31 147.23 154.02 146.98 153.71 146.75C153.71 146.75 153.71 146.75 153.71 146.75C153.03 146.27 152.32 145.98 152.17 145.89C151.29 145.53 150.13 145.16 149.9 145.07C148.96 144.77 148.33 144.56 148 144.44C148 144.44 148 144.44 148 144.44C145.78 143.64 144.03 142.58 142.75 141.27C142.75 141.27 142.75 141.27 142.75 141.27C142.2 140.64 141.8 140.11 141.54 139.68C141.54 139.68 141.54 139.68 141.54 139.68C141.39 139.44 141.32 139.2 141.32 138.96C141.32 138.96 141.32 138.96 141.32 138.96ZM170.79 129.72C170.79 129.38 170.95 129.06 171.25 128.76C171.25 128.76 171.25 128.76 171.25 128.76C171.52 128.52 171.81 128.4 172.13 128.4C172.13 128.4 172.13 128.4 172.13 128.4C172.49 128.4 172.82 128.55 173.1 128.83L173.1 128.83C180.35 136.75 184.37 141.15 185.18 142.03C185.41 142.31 185.52 142.6 185.52 142.92C185.52 142.92 185.52 142.92 185.52 142.92C185.52 143.28 185.38 143.6 185.09 143.89C185.09 143.89 185.09 143.89 185.09 143.89C184.82 144.12 184.52 144.23 184.2 144.23C184.2 144.23 184.2 144.23 184.2 144.23C183.84 144.23 183.52 144.09 183.23 143.8L183.23 143.8C175.99 135.89 171.96 131.49 171.16 130.61C170.92 130.32 170.79 130.02 170.79 129.72C170.79 129.72 170.79 129.72 170.79 129.72ZM182.87 158.03C182.87 151.66 182.87 148.11 182.87 147.41C182.87 146.84 183.21 146.56 183.25 146.47C183.64 146.09 184.11 146.13 184.2 146.09C184.77 146.09 185.05 146.43 185.14 146.47C185.39 146.72 185.52 147.03 185.52 147.41L185.52 147.41C185.52 153.78 185.52 157.32 185.52 158.03C185.52 158.59 185.18 158.88 185.14 158.97C184.77 159.35 184.3 159.31 184.2 159.35C183.64 159.35 183.35 159.01 183.25 158.97C183 158.72 182.87 158.41 182.87 158.03L182.87 158.03ZM186.19 139.63C186.19 139.32 186.31 139.02 186.54 138.75L186.54 138.75C191.82 132.8 194.76 129.49 195.35 128.83C195.63 128.55 195.96 128.4 196.32 128.4C196.32 128.4 196.32 128.4 196.32 128.4C196.64 128.4 196.93 128.52 197.2 128.76C197.2 128.76 197.2 128.76 197.2 128.76C197.49 129.04 197.64 129.36 197.64 129.72C197.64 129.72 197.64 129.72 197.64 129.72C197.64 130.04 197.52 130.33 197.29 130.61L197.29 130.61C192.01 136.56 189.07 139.86 188.48 140.52C188.19 140.81 187.87 140.95 187.51 140.95C187.51 140.95 187.51 140.95 187.51 140.95C187.19 140.95 186.9 140.84 186.62 140.61C186.62 140.61 186.62 140.61 186.62 140.61C186.34 140.32 186.19 140 186.19 139.63C186.19 139.63 186.19 139.63 186.19 139.63ZM200.51 143.89C200.51 140.77 201.51 138.52 201.63 137.92C202.75 135.06 204.35 133.46 204.66 132.97C206.56 130.89 208.76 129.98 209.22 129.65C211 128.82 212.87 128.4 214.83 128.4C214.83 128.4 214.83 128.4 214.83 128.4C218.75 128.4 221.33 130.29 222.06 130.5C225.36 132.59 226.74 135.59 227.26 136.15C229.15 139.72 228.96 143.12 229.15 143.89C229.15 148.06 227.45 150.84 227.26 151.61C225.36 155.16 222.58 156.69 222.06 157.26C218.75 159.35 215.55 159.14 214.83 159.35C210.89 159.35 208.31 157.47 207.59 157.26C204.28 155.16 202.92 152.17 202.4 151.61C201.14 149.24 200.51 146.67 200.51 143.89C200.51 143.89 200.51 143.89 200.51 143.89ZM203.12 143.89C203.12 146.52 203.95 148.41 204.05 148.91C204.98 151.3 206.31 152.59 206.56 153C208.13 154.7 209.9 155.44 210.27 155.71C211.71 156.38 213.21 156.71 214.78 156.71C214.78 156.71 214.78 156.71 214.78 156.71C217.93 156.71 220.03 155.19 220.61 155.02C223.28 153.32 224.45 150.83 224.88 150.37C226.46 147.41 226.3 144.54 226.46 143.89C226.46 140.36 225.03 138.06 224.88 137.41C223.28 134.45 221.03 133.22 220.61 132.76C218.82 131.63 216.88 131.07 214.78 131.07C214.78 131.07 214.78 131.07 214.78 131.07C212.43 131.07 210.72 131.96 210.27 132.06C208.13 133.07 206.93 134.5 206.56 134.77C205.5 135.91 204.67 137.28 204.05 138.87C203.49 141.88 203.18 143.56 203.12 143.89ZM236.05 148.74C236.05 146.06 236.05 144.58 236.05 144.28C236.05 143.71 236.39 143.43 236.43 143.34C236.8 142.96 237.27 143 237.37 142.96C237.92 142.96 238.22 143.3 238.32 143.34C238.58 143.59 238.71 143.9 238.71 144.28L238.71 144.28C238.71 146.98 238.71 148.49 238.71 148.79C238.71 149.51 238.76 150.1 238.87 150.56C238.87 150.56 238.87 150.56 238.87 150.56C239.16 151.96 239.97 152.92 240.09 153.19C240.71 154.01 241.45 154.68 242.33 155.2C242.33 155.2 242.33 155.2 242.33 155.2C243.19 155.69 243.99 156.03 244.71 156.22C244.71 156.22 244.71 156.22 244.71 156.22C246.05 156.56 247.06 156.53 247.32 156.56C248.16 156.56 249.03 156.45 249.93 156.22C249.93 156.22 249.93 156.22 249.93 156.22C250.68 156.03 251.48 155.69 252.33 155.2C252.33 155.2 252.33 155.2 252.33 155.2C253.64 154.43 254.33 153.39 254.56 153.19C255.17 152.37 255.57 151.49 255.76 150.56C255.76 150.56 255.76 150.56 255.76 150.56C255.89 150.04 255.95 149.45 255.95 148.79L255.95 148.79C255.95 146.08 255.95 144.58 255.95 144.28C255.95 143.71 256.29 143.43 256.33 143.34C256.71 142.96 257.17 143 257.27 142.96C257.83 142.96 258.11 143.3 258.21 143.34C258.46 143.59 258.59 143.9 258.59 144.28L258.59 144.28C258.59 146.96 258.59 148.45 258.59 148.74C258.59 149.68 258.53 150.46 258.42 151.08C258.42 151.08 258.42 151.08 258.42 151.08C257.96 153.13 256.86 154.42 256.69 154.79C255.84 155.9 254.83 156.8 253.68 157.49C253.68 157.49 253.68 157.49 253.68 157.49C252.72 158.06 251.69 158.51 250.6 158.83C250.6 158.83 250.6 158.83 250.6 158.83C249.59 159.11 248.5 159.26 247.32 159.26C247.32 159.26 247.32 159.26 247.32 159.26C246.15 159.26 245.07 159.11 244.06 158.83C244.06 158.83 244.06 158.83 244.06 158.83C242.94 158.51 241.9 158.06 240.95 157.49C240.95 157.49 240.95 157.49 240.95 157.49C239.22 156.45 238.24 155.06 237.94 154.79C237.09 153.69 236.52 152.45 236.22 151.08C236.22 151.08 236.22 151.08 236.22 151.08C236.11 150.46 236.05 149.68 236.05 148.74L236.05 148.74ZM236.05 139.89C236.05 133.79 236.05 130.4 236.05 129.72C236.05 129.17 236.39 128.87 236.43 128.78C236.8 128.4 237.27 128.44 237.37 128.4C237.92 128.4 238.22 128.74 238.32 128.78C238.58 129.04 238.71 129.35 238.71 129.72L238.71 129.72C238.71 135.82 238.71 139.21 238.71 139.89C238.71 140.45 238.36 140.74 238.32 140.84C237.92 141.23 237.46 141.19 237.37 141.23C236.8 141.23 236.52 140.88 236.43 140.84C236.18 140.58 236.05 140.26 236.05 139.89L236.05 139.89ZM255.81 139.93C255.81 133.83 255.81 130.44 255.81 129.76C255.81 129.21 256.16 128.92 256.19 128.82C256.58 128.45 257.05 128.48 257.15 128.45C257.7 128.45 257.99 128.79 258.08 128.82C258.34 129.08 258.46 129.39 258.46 129.76L258.46 129.76C258.46 135.86 258.46 139.26 258.46 139.93C258.46 140.5 258.12 140.79 258.08 140.88C257.7 141.27 257.24 141.23 257.15 141.27C256.58 141.27 256.29 140.92 256.19 140.88C255.94 140.63 255.81 140.31 255.81 139.93L255.81 139.93ZM265.76 158.03C265.76 141.04 265.76 131.61 265.76 129.72C265.76 129.17 266.11 128.87 266.14 128.78C266.53 128.4 267 128.44 267.09 128.4C267.66 128.4 267.94 128.74 268.03 128.78C268.28 129.04 268.41 129.35 268.41 129.72L268.41 129.72C268.41 146.71 268.41 156.14 268.41 158.03C268.41 158.59 268.07 158.88 268.03 158.97C267.66 159.35 267.19 159.31 267.09 159.35C266.53 159.35 266.24 159.01 266.14 158.97C265.89 158.72 265.76 158.41 265.76 158.03L265.76 158.03ZM270.18 129.72C270.18 129.17 270.53 128.87 270.57 128.78C270.82 128.53 271.13 128.4 271.51 128.4L271.51 128.4L278.49 128.4C278.49 128.43 278.49 128.44 278.49 128.45C282.32 128.45 283.93 130.31 284.54 130.51C286.02 131.88 286.76 133.88 286.76 136.51C286.76 136.51 286.76 136.51 286.76 136.51C286.76 140.36 284.77 141.78 284.55 142.37C283.08 143.7 281.09 144.37 278.58 144.37L278.58 144.37C274.5 144.37 272.24 144.37 271.78 144.37C271.22 144.37 270.93 144.02 270.83 143.98C270.44 143.6 270.48 143.14 270.44 143.05C270.44 142.49 270.79 142.19 270.83 142.1C271.09 141.83 271.41 141.7 271.78 141.7L271.78 141.7C275.86 141.7 278.13 141.7 278.58 141.7C282.27 141.7 284.11 139.96 284.11 136.46C284.11 136.46 284.11 136.46 284.11 136.46C284.11 132.87 282.24 131.07 278.49 131.07L278.49 131.07C274.3 131.07 271.97 131.07 271.51 131.07C271.13 131.07 270.82 130.93 270.57 130.67C270.33 130.1 270.2 129.78 270.18 129.72ZM273.51 146.59C273.51 146.24 273.62 145.93 273.85 145.66C273.85 145.66 273.85 145.66 273.85 145.66C274.13 145.39 274.44 145.25 274.78 145.25C274.78 145.25 274.78 145.25 274.78 145.25C275.11 145.25 275.42 145.37 275.71 145.62L275.71 145.62C282.98 152.51 287.02 156.34 287.82 157.1C288.1 157.37 288.23 157.68 288.23 158.03C288.23 158.03 288.23 158.03 288.23 158.03C288.23 158.36 288.11 158.67 287.87 158.96C287.87 158.96 287.87 158.96 287.87 158.96C287.61 159.22 287.3 159.35 286.94 159.35C286.94 159.35 286.94 159.35 286.94 159.35C286.59 159.35 286.28 159.23 286.01 159L286.01 159C278.74 152.11 274.7 148.28 273.89 147.52C273.64 147.26 273.51 146.95 273.51 146.59C273.51 146.59 273.51 146.59 273.51 146.59ZM302.85 158.03C302.85 141.04 302.85 131.61 302.85 129.72C302.85 129.17 303.2 128.87 303.24 128.78C303.63 128.4 304.1 128.44 304.2 128.4C304.75 128.4 305.04 128.74 305.14 128.78C305.39 129.04 305.51 129.35 305.51 129.72L305.51 129.72C305.51 146.71 305.51 156.14 305.51 158.03C305.51 158.59 305.17 158.88 305.14 158.97C304.75 159.35 304.29 159.31 304.2 159.35C303.63 159.35 303.34 159.01 303.24 158.97C302.98 158.72 302.85 158.41 302.85 158.03L302.85 158.03ZM306.65 142.81C306.65 142.24 307 141.96 307.04 141.87C307.3 141.62 307.62 141.49 307.99 141.49L307.99 141.49C314.4 141.49 317.96 141.49 318.68 141.49C319.24 141.49 319.53 141.83 319.63 141.87C320.02 142.24 319.98 142.71 320.02 142.81C320.02 143.37 319.67 143.66 319.63 143.76C319.37 144.02 319.05 144.15 318.68 144.15L318.68 144.15C312.26 144.15 308.7 144.15 307.99 144.15C307.62 144.15 307.3 144.02 307.04 143.76C306.8 143.19 306.68 142.87 306.65 142.81ZM306.65 129.72C306.65 129.17 307 128.87 307.04 128.78C307.3 128.53 307.62 128.4 307.99 128.4L307.99 128.4C315.97 128.4 320.4 128.4 321.29 128.4C321.85 128.4 322.14 128.74 322.24 128.78C322.64 129.17 322.6 129.62 322.64 129.72C322.64 130.28 322.28 130.57 322.24 130.67C321.98 130.93 321.66 131.07 321.29 131.07L321.29 131.07C313.31 131.07 308.87 131.07 307.99 131.07C307.62 131.07 307.3 130.93 307.04 130.67C306.8 130.1 306.68 129.78 306.65 129.72ZM325.09 158.07C325.09 157.86 325.13 157.67 325.22 157.49L325.22 157.49C331.12 143.76 334.39 136.13 335.05 134.6C335.28 134.07 335.69 133.81 336.28 133.81C336.28 133.81 336.28 133.81 336.28 133.81C336.86 133.81 337.13 134.17 337.23 134.21C337.47 134.47 337.59 134.78 337.59 135.12C337.59 135.12 337.59 135.12 337.59 135.12C337.59 135.34 337.55 135.53 337.46 135.7L337.46 135.7C331.58 149.45 328.32 157.09 327.67 158.62C327.43 159.13 327.01 159.39 326.41 159.39C326.41 159.39 326.41 159.39 326.41 159.39C325.83 159.39 325.55 159.03 325.45 158.99C325.21 158.73 325.09 158.42 325.09 158.07C325.09 158.07 325.09 158.07 325.09 158.07ZM333.67 148.04C333.67 147.47 334.02 147.19 334.06 147.1C334.31 146.85 334.63 146.72 335.01 146.72L335.01 146.72C339.24 146.72 341.59 146.72 342.06 146.72C342.62 146.72 342.91 147.06 343.01 147.1C343.4 147.47 343.36 147.94 343.4 148.04C343.4 148.59 343.05 148.89 343.01 148.99C342.75 149.25 342.43 149.37 342.06 149.37L342.06 149.37C337.83 149.37 335.48 149.37 335.01 149.37C334.63 149.37 334.31 149.25 334.06 148.99C333.82 148.42 333.69 148.1 333.67 148.04ZM337.25 129.76C337.25 129.17 337.52 128.76 338.05 128.54C338.05 128.54 338.05 128.54 338.05 128.54C338.22 128.45 338.4 128.4 338.57 128.4C338.57 128.4 338.57 128.4 338.57 128.4C339.17 128.4 339.59 128.67 339.81 129.21L339.81 129.21C347.08 146.18 351.12 155.6 351.93 157.49C352.02 157.67 352.06 157.85 352.06 158.03C352.06 158.03 352.06 158.03 352.06 158.03C352.06 158.62 351.79 159.03 351.26 159.26C351.26 159.26 351.26 159.26 351.26 159.26C351.09 159.35 350.92 159.39 350.75 159.39C350.75 159.39 350.75 159.39 350.75 159.39C350.14 159.39 349.72 159.13 349.49 158.62L349.49 158.62C342.22 141.63 338.19 132.19 337.38 130.3C337.29 130.13 337.25 129.95 337.25 129.76C337.25 129.76 337.25 129.76 337.25 129.76ZM354.93 129.72C354.93 129.21 355.29 128.89 355.33 128.8C355.58 128.54 355.9 128.4 356.29 128.4C356.29 128.4 356.29 128.4 356.29 128.4C356.71 128.4 356.97 128.62 357.05 128.65C357.28 128.8 357.44 129.01 357.55 129.29L357.55 129.29C363.83 146.27 367.32 155.71 368.02 157.6C368.08 157.83 368.1 157.99 368.1 158.07C368.1 158.07 368.1 158.07 368.1 158.07C368.1 158.59 367.76 158.9 367.72 158.99C367.46 159.26 367.14 159.39 366.75 159.39C366.75 159.39 366.75 159.39 366.75 159.39C366.14 159.39 365.72 159.1 365.48 158.53L365.48 158.53C359.2 141.54 355.71 132.1 355.02 130.22C354.96 129.99 354.93 129.82 354.93 129.72C354.93 129.72 354.93 129.72 354.93 129.72ZM368.56 149.67C368.56 149.52 368.59 149.35 368.65 149.18L368.65 149.18C373.1 137.24 375.58 130.61 376.08 129.29C376.3 128.7 376.71 128.4 377.3 128.4C377.3 128.4 377.3 128.4 377.3 128.4C377.91 128.4 378.2 128.76 378.3 128.8C378.56 129.07 378.68 129.38 378.68 129.72C378.68 129.72 378.68 129.72 378.68 129.72C378.68 129.88 378.66 130.05 378.6 130.22L378.6 130.22C374.13 142.15 371.64 148.78 371.14 150.1C370.92 150.69 370.51 150.99 369.92 150.99C369.92 150.99 369.92 150.99 369.92 150.99C369.31 150.99 369.03 150.63 368.93 150.59C368.68 150.32 368.56 150.02 368.56 149.67C368.56 149.67 368.56 149.67 368.56 149.67ZM382.29 143.89C382.29 140.77 383.3 138.52 383.42 137.92C384.53 135.06 386.13 133.46 386.43 132.97C388.34 130.89 390.54 129.98 391 129.65C392.78 128.82 394.64 128.4 396.6 128.4C396.6 128.4 396.6 128.4 396.6 128.4C400.53 128.4 403.11 130.29 403.83 130.5C407.14 132.59 408.52 135.59 409.04 136.15C410.94 139.72 410.75 143.12 410.94 143.89C410.94 148.06 409.23 150.84 409.04 151.61C407.14 155.16 404.36 156.69 403.83 157.26C400.53 159.35 397.33 159.14 396.6 159.35C392.67 159.35 390.1 157.47 389.37 157.26C386.07 155.16 384.7 152.17 384.18 151.61C382.92 149.24 382.29 146.67 382.29 143.89C382.29 143.89 382.29 143.89 382.29 143.89ZM384.9 143.89C384.9 146.52 385.73 148.41 385.83 148.91C386.75 151.3 388.08 152.59 388.34 153C389.91 154.7 391.69 155.44 392.06 155.71C393.49 156.38 394.99 156.71 396.56 156.71C396.56 156.71 396.56 156.71 396.56 156.71C399.71 156.71 401.8 155.19 402.39 155.02C405.07 153.32 406.23 150.83 406.65 150.37C408.25 147.41 408.09 144.54 408.25 143.89C408.25 140.36 406.81 138.06 406.65 137.41C405.07 134.45 402.81 133.22 402.39 132.76C400.6 131.63 398.66 131.07 396.56 131.07C396.56 131.07 396.56 131.07 396.56 131.07C394.21 131.07 392.51 131.96 392.06 132.06C389.91 133.07 388.71 134.5 388.34 134.77C387.28 135.91 386.45 137.28 385.83 138.87C385.27 141.88 384.96 143.56 384.9 143.89ZM417.03 158.03C417.03 141.04 417.03 131.61 417.03 129.72C417.03 129.17 417.38 128.87 417.42 128.78C417.81 128.4 418.28 128.44 418.37 128.4C418.92 128.4 419.22 128.74 419.31 128.78C419.56 129.04 419.69 129.35 419.69 129.72L419.69 129.72C419.69 146.71 419.69 156.14 419.69 158.03C419.69 158.59 419.35 158.88 419.31 158.97C418.92 159.35 418.47 159.31 418.37 159.35C417.81 159.35 417.52 159.01 417.42 158.97C417.16 158.72 417.03 158.41 417.03 158.03L417.03 158.03ZM421.46 129.72C421.46 129.17 421.79 128.87 421.83 128.78C422.08 128.53 422.4 128.4 422.77 128.4L422.77 128.4L429.77 128.4C429.77 128.43 429.77 128.44 429.77 128.45C433.6 128.45 435.21 130.31 435.82 130.51C437.3 131.88 438.04 133.88 438.04 136.51C438.04 136.51 438.04 136.51 438.04 136.51C438.04 140.36 436.05 141.78 435.83 142.37C434.35 143.7 432.36 144.37 429.86 144.37L429.86 144.37C425.78 144.37 423.51 144.37 423.06 144.37C422.5 144.37 422.2 144.02 422.11 143.98C421.71 143.6 421.75 143.14 421.71 143.05C421.71 142.49 422.07 142.19 422.11 142.1C422.37 141.83 422.68 141.7 423.06 141.7L423.06 141.7C427.14 141.7 429.41 141.7 429.86 141.7C433.54 141.7 435.39 139.96 435.39 136.46C435.39 136.46 435.39 136.46 435.39 136.46C435.39 132.87 433.51 131.07 429.77 131.07L429.77 131.07C425.57 131.07 423.24 131.07 422.77 131.07C422.4 131.07 422.08 130.93 421.83 130.67C421.61 130.1 421.48 129.78 421.46 129.72ZM424.78 146.59C424.78 146.24 424.9 145.93 425.13 145.66C425.13 145.66 425.13 145.66 425.13 145.66C425.4 145.39 425.71 145.25 426.06 145.25C426.06 145.25 426.06 145.25 426.06 145.25C426.39 145.25 426.7 145.37 426.98 145.62L426.98 145.62C434.25 152.51 438.29 156.34 439.1 157.1C439.37 157.37 439.51 157.68 439.51 158.03C439.51 158.03 439.51 158.03 439.51 158.03C439.51 158.36 439.39 158.67 439.14 158.96C439.14 158.96 439.14 158.96 439.14 158.96C438.88 159.22 438.57 159.35 438.22 159.35C438.22 159.35 438.22 159.35 438.22 159.35C437.87 159.35 437.56 159.23 437.29 159L437.29 159C430.02 152.11 425.98 148.28 425.17 147.52C424.91 147.26 424.78 146.95 424.78 146.59C424.78 146.59 424.78 146.59 424.78 146.59ZM445.72 158.03C445.72 141.04 445.72 131.61 445.72 129.72C445.72 129.17 446.07 128.87 446.11 128.78C446.51 128.4 446.97 128.44 447.06 128.4C447.62 128.4 447.91 128.74 448 128.78C448.26 129.04 448.39 129.35 448.39 129.72L448.39 129.72C448.39 146.71 448.39 156.14 448.39 158.03C448.39 158.59 448.04 158.88 448 158.97C447.62 159.35 447.15 159.31 447.06 159.35C446.51 159.35 446.2 159.01 446.11 158.97C445.85 158.72 445.72 158.41 445.72 158.03L445.72 158.03ZM453.06 129.72C453.06 129.17 453.41 128.87 453.45 128.78C453.7 128.53 454.01 128.4 454.39 128.4L454.39 128.4C466.83 128.4 473.75 128.4 475.13 128.4C475.69 128.4 475.97 128.74 476.07 128.78C476.46 129.17 476.42 129.62 476.46 129.72C476.46 130.28 476.11 130.57 476.07 130.67C475.82 130.93 475.5 131.07 475.13 131.07L475.13 131.07C462.69 131.07 455.77 131.07 454.39 131.07C454.01 131.07 453.7 130.93 453.45 130.67C453.22 130.1 453.09 129.78 453.06 129.72ZM463.41 158.03C463.41 143.44 463.41 135.34 463.41 133.72C463.41 133.16 463.76 132.86 463.8 132.77C464.18 132.38 464.65 132.42 464.75 132.38C465.31 132.38 465.59 132.73 465.69 132.77C465.94 133.03 466.06 133.34 466.06 133.72L466.06 133.72C466.06 148.31 466.06 156.41 466.06 158.03C466.06 158.59 465.73 158.88 465.69 158.97C465.31 159.35 464.84 159.31 464.75 159.35C464.18 159.35 463.89 159.01 463.8 158.97C463.54 158.72 463.41 158.41 463.41 158.03L463.41 158.03ZM481.22 158.03C481.22 141.04 481.22 131.61 481.22 129.72C481.22 129.17 481.57 128.87 481.61 128.78C482.01 128.4 482.46 128.44 482.56 128.4C483.12 128.4 483.4 128.74 483.5 128.78C483.75 129.04 483.87 129.35 483.87 129.72L483.87 129.72C483.87 146.71 483.87 156.14 483.87 158.03C483.87 158.59 483.54 158.88 483.5 158.97C483.12 159.35 482.65 159.31 482.56 159.35C482.01 159.35 481.7 159.01 481.61 158.97C481.35 158.72 481.22 158.41 481.22 158.03L481.22 158.03ZM484.93 158.03C484.93 157.47 485.28 157.18 485.32 157.09C485.58 156.84 485.9 156.71 486.27 156.71L486.27 156.71C494.76 156.71 499.48 156.71 500.42 156.71C500.98 156.71 501.27 157.05 501.36 157.09C501.74 157.47 501.7 157.94 501.74 158.03C501.74 158.59 501.4 158.88 501.36 158.97C501.1 159.22 500.79 159.35 500.42 159.35L500.42 159.35C491.93 159.35 487.22 159.35 486.27 159.35C485.9 159.35 485.58 159.22 485.32 158.97C485.09 158.41 484.96 158.09 484.93 158.03ZM485.02 142.81C485.02 142.24 485.37 141.96 485.41 141.87C485.67 141.62 485.98 141.49 486.36 141.49L486.36 141.49C493.2 141.49 497 141.49 497.76 141.49C498.32 141.49 498.6 141.83 498.7 141.87C499.07 142.24 499.04 142.71 499.07 142.81C499.07 143.37 498.74 143.66 498.7 143.76C498.45 144.02 498.13 144.15 497.76 144.15L497.76 144.15C490.92 144.15 487.12 144.15 486.36 144.15C485.98 144.15 485.67 144.02 485.41 143.76C485.18 143.19 485.05 142.87 485.02 142.81ZM485.02 129.72C485.02 129.17 485.37 128.87 485.41 128.78C485.67 128.53 485.98 128.4 486.36 128.4L486.36 128.4C494.77 128.4 499.44 128.4 500.38 128.4C500.93 128.4 501.22 128.74 501.32 128.78C501.69 129.17 501.66 129.62 501.69 129.72C501.69 130.28 501.36 130.57 501.32 130.67C501.06 130.93 500.75 131.07 500.38 131.07L500.38 131.07C491.97 131.07 487.3 131.07 486.36 131.07C485.98 131.07 485.67 130.93 485.41 130.67C485.18 130.1 485.05 129.78 485.02 129.72Z" id="a1CXtk9nyz"></path></defs><g><g><g><use xlink:href="#a56d2Y9znb" opacity="1" fill="#ffde59" fill-opacity="1"></use><g><use xlink:href="#a56d2Y9znb" opacity="1" fill-opacity="0" stroke="#fe66c4" stroke-width="2" stroke-opacity="1"></use></g></g><g><use xlink:href="#a1CXtk9nyz" opacity="1" fill="#ffde59" fill-opacity="1"></use><g><use xlink:href="#a1CXtk9nyz" opacity="1" fill-opacity="0" stroke="#fe66c4" stroke-width="2" stroke-opacity="1"></use></g></g></g></g></svg>